<svg width="256" height="53" viewBox="0 0 256 53" fill="none" xmlns="http://www.w3.org/2000/svg">
<g id="Logo">
<g id="Group 7">
<g id="&#208;&#149;&#208;&#186;&#208;&#190; &#208;&#151;&#208;&#176;&#209;&#133;&#208;&#184;&#209;&#129;&#209;&#130;">
<path d="M140.575 19.6747V21.7308H130.689V8.52647H140.311V10.5826H133.137V14.0157H139.501V16.0341H133.137V19.6747H140.575Z" fill="#222222"/>
<path d="M148.162 16.1661H145.714V21.7308H143.303V8.52647H145.714V14.0534H148.237L152.022 8.52647H154.62L150.12 14.9211L154.79 21.7308H152.022L148.162 16.1661Z" fill="#222222"/>
<path d="M162.515 21.9194C161.172 21.9194 159.961 21.6302 158.881 21.0517C157.802 20.4607 156.954 19.6495 156.339 18.6183C155.724 17.5746 155.416 16.4113 155.416 15.1286C155.416 13.8459 155.724 12.689 156.339 11.6578C156.954 10.614 157.802 9.80289 158.881 9.22442C159.961 8.63337 161.172 8.33784 162.515 8.33784C163.858 8.33784 165.07 8.63337 166.149 9.22442C167.229 9.80289 168.076 10.6077 168.691 11.6389C169.307 12.6701 169.614 13.8334 169.614 15.1286C169.614 16.4239 169.307 17.5871 168.691 18.6183C168.076 19.6495 167.229 20.4607 166.149 21.0517C165.07 21.6302 163.858 21.9194 162.515 21.9194ZM162.515 19.769C163.394 19.769 164.185 19.5741 164.888 19.1842C165.591 18.7818 166.143 18.2285 166.545 17.5243C166.947 16.8075 167.147 16.0089 167.147 15.1286C167.147 14.2483 166.947 13.4561 166.545 12.7519C166.143 12.035 165.591 11.4817 164.888 11.0919C164.185 10.6895 163.394 10.4883 162.515 10.4883C161.637 10.4883 160.846 10.6895 160.143 11.0919C159.44 11.4817 158.887 12.035 158.486 12.7519C158.084 13.4561 157.883 14.2483 157.883 15.1286C157.883 16.0089 158.084 16.8075 158.486 17.5243C158.887 18.2285 159.44 18.7818 160.143 19.1842C160.846 19.5741 161.637 19.769 162.515 19.769Z" fill="#222222"/>
<path d="M184.454 14.8457C185.245 15.0972 185.86 15.5059 186.299 16.0718C186.751 16.6251 186.977 17.279 186.977 18.0336C186.977 18.8258 186.72 19.5175 186.205 20.1085C185.69 20.687 185 21.1334 184.134 21.4478C183.28 21.7622 182.345 21.9194 181.328 21.9194C180.449 21.9194 179.564 21.8 178.673 21.561C177.794 21.3095 176.978 20.9385 176.225 20.4481L177.016 18.6561C177.593 19.0459 178.234 19.3477 178.937 19.5615C179.64 19.7627 180.336 19.8633 181.027 19.8633C182.018 19.8633 182.841 19.6684 183.493 19.2786C184.159 18.8887 184.491 18.3543 184.491 17.6752C184.491 17.0967 184.253 16.6566 183.776 16.3547C183.299 16.0529 182.64 15.902 181.799 15.902H178.73V13.978H181.61C182.339 13.978 182.91 13.8271 183.324 13.5252C183.738 13.2234 183.945 12.8147 183.945 12.2991C183.945 11.6829 183.663 11.2051 183.098 10.8655C182.546 10.526 181.836 10.3562 180.97 10.3562C180.38 10.3562 179.771 10.4442 179.144 10.6203C178.516 10.7838 177.926 11.029 177.374 11.356L176.602 9.37532C177.28 9.01063 177.995 8.74026 178.748 8.5642C179.514 8.37557 180.274 8.28125 181.027 8.28125C182.006 8.28125 182.903 8.43216 183.719 8.73397C184.548 9.03578 185.207 9.46964 185.697 10.0355C186.186 10.5889 186.431 11.2428 186.431 11.9973C186.431 12.6512 186.255 13.2234 185.904 13.7139C185.552 14.2043 185.069 14.5816 184.454 14.8457Z" fill="#222222"/>
<path d="M198.49 18.6749H191.899L190.6 21.7308H188.077L194.008 8.52647H196.418L202.369 21.7308H199.808L198.49 18.6749ZM197.68 16.7509L195.195 10.9787L192.728 16.7509H197.68Z" fill="#222222"/>
<path d="M205.253 8.52647L208.36 12.9405L211.467 8.52647H214.329L209.904 14.8645L214.687 21.7308H211.787L208.36 16.9206L204.952 21.7308H202.127L206.891 14.9589L202.429 8.52647H205.253Z" fill="#222222"/>
<path d="M216.343 8.52647H218.753V17.9015L225.833 8.52647H228.112V21.7308H225.701V12.3746L218.621 21.7308H216.343V8.52647Z" fill="#222222"/>
<path d="M237.87 21.9194C236.54 21.9194 235.335 21.6302 234.255 21.0517C233.188 20.4607 232.347 19.6495 231.732 18.6183C231.129 17.5871 230.828 16.4239 230.828 15.1286C230.828 13.8334 231.136 12.6701 231.751 11.6389C232.366 10.6077 233.207 9.80289 234.274 9.22442C235.353 8.63337 236.559 8.33784 237.889 8.33784C238.969 8.33784 239.954 8.52647 240.845 8.90374C241.737 9.28101 242.49 9.82804 243.105 10.5448L241.523 12.035C240.569 11.0039 239.396 10.4883 238.002 10.4883C237.098 10.4883 236.289 10.6895 235.573 11.0919C234.858 11.4817 234.299 12.0288 233.897 12.733C233.496 13.4372 233.295 14.2358 233.295 15.1286C233.295 16.0215 233.496 16.82 233.897 17.5243C234.299 18.2285 234.858 18.7818 235.573 19.1842C236.289 19.5741 237.098 19.769 238.002 19.769C239.396 19.769 240.569 19.2471 241.523 18.2033L243.105 19.7124C242.49 20.4292 241.73 20.9763 240.827 21.3535C239.935 21.7308 238.95 21.9194 237.87 21.9194Z" fill="#222222"/>
<path d="M254.796 10.6014H250.428V21.7308H247.999V10.6014H243.649V8.52647H254.796V10.6014Z" fill="#222222"/>
</g>
<g id="&#208;&#163;&#208;&#154;&#208;&#160;&#208;&#144;&#209;&#151;&#208;&#157;&#208;&#144;">
<path d="M79.9359 36.2004L76.0066 44.577C75.8676 44.8685 75.7196 45.1085 75.5626 45.2969C75.4056 45.4853 75.2351 45.6333 75.0512 45.7409C74.8718 45.8486 74.6767 45.9226 74.4659 45.963C74.2596 46.0078 74.0375 46.0302 73.7998 46.0302C73.4769 46.0302 73.2414 46.0011 73.0933 45.9428C72.9453 45.8845 72.8713 45.7992 72.8713 45.6871V44.5568H73.3961C73.4948 44.5568 73.5957 44.5478 73.6989 44.5299C73.802 44.5119 73.903 44.476 74.0017 44.4222C74.1048 44.3684 74.2035 44.2921 74.2977 44.1935C74.3919 44.0948 74.4794 43.9647 74.5601 43.8032L74.9436 43.0228L71.0413 36.2004H72.7368C72.8937 36.2004 73.0193 36.2385 73.1135 36.3148C73.2077 36.391 73.2862 36.4875 73.349 36.6041L75.2396 40.17C75.3428 40.3674 75.4348 40.5625 75.5155 40.7554C75.6007 40.9482 75.6747 41.1456 75.7375 41.3474C75.8541 40.9438 76.0044 40.5513 76.1883 40.17L77.8367 36.6041C77.886 36.5054 77.9601 36.4135 78.0587 36.3282C78.1574 36.243 78.283 36.2004 78.4355 36.2004H79.9359Z" fill="#222222"/>
<path d="M110.004 45.9293H108.363C108.192 45.9293 108.049 45.8845 107.932 45.7948C107.82 45.7051 107.715 45.5727 107.616 45.3978L105.544 42.1279C105.49 42.0337 105.432 41.9575 105.369 41.8992C105.31 41.8364 105.245 41.787 105.174 41.7511C105.106 41.7108 105.028 41.6839 104.938 41.6704C104.853 41.6569 104.754 41.6502 104.642 41.6502H103.559V45.9293H101.749V36.2004H103.559V40.2777H104.474C104.658 40.2777 104.817 40.2463 104.952 40.1835C105.086 40.1207 105.212 40.0041 105.328 39.8336L107.461 36.6848C107.551 36.5413 107.656 36.4247 107.777 36.335C107.899 36.2453 108.044 36.2004 108.215 36.2004H109.762L107.118 40.1027C107.006 40.2732 106.876 40.4145 106.728 40.5266C106.58 40.6387 106.416 40.7262 106.237 40.789C106.506 40.8653 106.732 40.9864 106.916 41.1523C107.105 41.3138 107.284 41.5381 107.455 41.8251L110.004 45.9293Z" fill="#222222"/>
<path d="M135.138 41.0918C135.47 41.0918 135.759 41.0514 136.006 40.9707C136.253 40.8854 136.457 40.7666 136.618 40.6141C136.784 40.4571 136.908 40.2687 136.988 40.0489C137.069 39.8246 137.109 39.5757 137.109 39.3021C137.109 39.0419 137.069 38.8064 136.988 38.5956C136.908 38.3848 136.786 38.2054 136.625 38.0574C136.464 37.9094 136.259 37.7972 136.013 37.721C135.766 37.6402 135.474 37.5999 135.138 37.5999H133.786V41.0918H135.138ZM135.138 36.2004C135.788 36.2004 136.351 36.2767 136.827 36.4292C137.302 36.5817 137.695 36.7947 138.004 37.0683C138.314 37.3419 138.542 37.6694 138.691 38.0506C138.843 38.4319 138.919 38.8491 138.919 39.3021C138.919 39.7731 138.841 40.2059 138.684 40.6006C138.527 40.9909 138.291 41.3273 137.977 41.6098C137.663 41.8924 137.269 42.1122 136.793 42.2692C136.322 42.4262 135.771 42.5047 135.138 42.5047H133.786V45.9293H131.976V36.2004H135.138Z" fill="#222222"/>
<path d="M165.628 42.2557L164.443 39.0195C164.385 38.876 164.325 38.7055 164.262 38.5082C164.199 38.3108 164.136 38.0977 164.073 37.869C164.015 38.0977 163.954 38.313 163.892 38.5149C163.829 38.7122 163.768 38.8849 163.71 39.033L162.533 42.2557H165.628ZM168.823 45.9293H167.424C167.267 45.9293 167.139 45.8912 167.04 45.8149C166.942 45.7342 166.868 45.6355 166.818 45.5189L166.092 43.5341H162.062L161.335 45.5189C161.299 45.6221 161.23 45.7163 161.126 45.8015C161.023 45.8867 160.893 45.9293 160.736 45.9293H159.33L163.152 36.2004H165.002L168.823 45.9293Z" fill="#222222"/>
<path d="M192.485 45.9293H190.669V36.2004H192.485V45.9293ZM191.025 34.7135C191.025 34.8346 191 34.949 190.951 35.0566C190.902 35.1643 190.834 35.2585 190.749 35.3392C190.669 35.4199 190.572 35.4827 190.46 35.5276C190.348 35.5724 190.229 35.5949 190.103 35.5949C189.987 35.5949 189.875 35.5724 189.767 35.5276C189.664 35.4827 189.572 35.4199 189.491 35.3392C189.41 35.2585 189.345 35.1643 189.296 35.0566C189.247 34.949 189.222 34.8346 189.222 34.7135C189.222 34.5924 189.247 34.478 189.296 34.3703C189.345 34.2582 189.41 34.1618 189.491 34.081C189.572 33.9958 189.664 33.9285 189.767 33.8792C189.875 33.8298 189.987 33.8052 190.103 33.8052C190.229 33.8052 190.348 33.8298 190.46 33.8792C190.572 33.9285 190.669 33.9958 190.749 34.081C190.834 34.1618 190.902 34.2582 190.951 34.3703C191 34.478 191.025 34.5924 191.025 34.7135ZM193.986 34.7135C193.986 34.8346 193.961 34.949 193.912 35.0566C193.867 35.1643 193.802 35.2585 193.716 35.3392C193.636 35.4199 193.539 35.4827 193.427 35.5276C193.319 35.5724 193.205 35.5949 193.084 35.5949C192.958 35.5949 192.839 35.5724 192.727 35.5276C192.62 35.4827 192.526 35.4199 192.445 35.3392C192.364 35.2585 192.299 35.1643 192.25 35.0566C192.205 34.949 192.182 34.8346 192.182 34.7135C192.182 34.5924 192.205 34.478 192.25 34.3703C192.299 34.2582 192.364 34.1618 192.445 34.081C192.526 33.9958 192.62 33.9285 192.727 33.8792C192.839 33.8298 192.958 33.8052 193.084 33.8052C193.205 33.8052 193.319 33.8298 193.427 33.8792C193.539 33.9285 193.636 33.9958 193.716 34.081C193.802 34.1618 193.867 34.2582 193.912 34.3703C193.961 34.478 193.986 34.5924 193.986 34.7135Z" fill="#222222"/>
<path d="M223.722 36.2004V45.9293H221.906V41.6771H217.337V45.9293H215.521V36.2004H217.337V40.3853H221.906V36.2004H223.722Z" fill="#222222"/>
<path d="M251.866 42.2557L250.682 39.0195C250.624 38.876 250.563 38.7055 250.501 38.5082C250.438 38.3108 250.375 38.0977 250.312 37.869C250.254 38.0977 250.193 38.313 250.13 38.5149C250.068 38.7122 250.007 38.8849 249.949 39.033L248.771 42.2557H251.866ZM255.062 45.9293H253.663C253.506 45.9293 253.378 45.8912 253.279 45.8149C253.181 45.7342 253.107 45.6355 253.057 45.5189L252.331 43.5341H248.3L247.574 45.5189C247.538 45.6221 247.468 45.7163 247.365 45.8015C247.262 45.8867 247.132 45.9293 246.975 45.9293H245.569L249.39 36.2004H251.241L255.062 45.9293Z" fill="#222222"/>
</g>
<g id="&#208;&#162;&#208;&#158;&#208;&#146;">
<path d="M80.8878 10.654H76.4581V21.9191H73.9951V10.654H69.5845V8.55373H80.8878V10.654Z" fill="#222222"/>
<path d="M89.0283 22.1101C87.6663 22.1101 86.438 21.8173 85.3433 21.2318C84.2486 20.6335 83.3894 19.8125 82.7657 18.7687C82.1419 17.7122 81.8301 16.5348 81.8301 15.2364C81.8301 13.9381 82.1419 12.767 82.7657 11.7232C83.3894 10.6667 84.2486 9.84572 85.3433 9.26018C86.438 8.66192 87.6663 8.36279 89.0283 8.36279C90.3903 8.36279 91.6186 8.66192 92.7133 9.26018C93.808 9.84572 94.6672 10.6604 95.291 11.7041C95.9147 12.7479 96.2265 13.9253 96.2265 15.2364C96.2265 16.5475 95.9147 17.7249 95.291 18.7687C94.6672 19.8125 93.808 20.6335 92.7133 21.2318C91.6186 21.8173 90.3903 22.1101 89.0283 22.1101ZM89.0283 19.9334C89.9193 19.9334 90.7213 19.7361 91.4341 19.3415C92.1469 18.9342 92.707 18.3741 93.1143 17.6613C93.5216 16.9357 93.7253 16.1275 93.7253 15.2364C93.7253 14.3454 93.5216 13.5435 93.1143 12.8307C92.707 12.1051 92.1469 11.545 91.4341 11.1504C90.7213 10.7431 89.9193 10.5394 89.0283 10.5394C88.1373 10.5394 87.3354 10.7431 86.6225 11.1504C85.9097 11.545 85.3496 12.1051 84.9423 12.8307C84.535 13.5435 84.3313 14.3454 84.3313 15.2364C84.3313 16.1275 84.535 16.9357 84.9423 17.6613C85.3496 18.3741 85.9097 18.9342 86.6225 19.3415C87.3354 19.7361 88.1373 19.9334 89.0283 19.9334Z" fill="#222222"/>
<path d="M107.773 14.9691C108.626 15.1982 109.275 15.5928 109.72 16.1529C110.166 16.7003 110.389 17.3876 110.389 18.215C110.389 19.3861 109.956 20.2962 109.09 20.9454C108.225 21.5945 106.971 21.9191 105.329 21.9191H98.9899V8.55373H104.966C106.468 8.55373 107.639 8.85286 108.479 9.45112C109.319 10.0494 109.739 10.8959 109.739 11.9905C109.739 12.6906 109.568 13.2953 109.224 13.8044C108.893 14.3136 108.409 14.7018 107.773 14.9691ZM101.434 14.2627H104.756C105.558 14.2627 106.169 14.1036 106.589 13.7853C107.009 13.4671 107.219 12.9961 107.219 12.3724C107.219 11.7487 107.009 11.2777 106.589 10.9595C106.169 10.6285 105.558 10.4631 104.756 10.4631H101.434V14.2627ZM105.253 20.0098C107.009 20.0098 107.887 19.3479 107.887 18.0241C107.887 16.7257 107.009 16.0765 105.253 16.0765H101.434V20.0098H105.253Z" fill="#222222"/>
</g>
</g>
<g id="Group">
<g id="Group_2">
<path id="Vector" d="M19.8819 50.724C-2.45885 36.129 3.78078 5.73771 3.69113 1.36279C-0.809294 12.2821 0.0692751 23.5601 0.0692751 26.5006C0.0692751 39.0516 8.78325 49.5406 20.4736 52.2839C20.2943 51.8357 19.9716 50.975 19.8819 50.724Z" fill="url(#paint0_linear_135_1517)"/>
<g id="Group_3">
<path id="Vector_2" d="M41.0574 4.3208C42.3125 21.8205 17.6767 33.9591 22.6075 49.325C29.4029 43.8205 39.7306 34.1384 42.7249 24.2231C41.2009 30.6958 36.9694 42.171 25.2073 52.9648C40.4299 53.7358 53.0526 41.5972 53.0526 26.5002C53.0526 17.2125 48.2832 9.05431 41.0574 4.3208Z" fill="url(#paint1_linear_135_1517)"/>
<path id="Vector_3" d="M26.5697 0C21.0652 0 16.1345 2.49227 13.3732 4.08804C9.05212 1.36268 6.77501 1.36268 4.92822 0.878569C6.54192 2.74329 25.2608 12.282 20.097 25.4247C17.5509 31.8974 18.2143 38.2626 18.2143 42.5299C10.3431 32.6326 8.92661 23.7034 8.92661 23.7034C8.72938 33.3318 15.2559 43.2112 19.1467 48.1061C18.0709 25.4426 39.6407 13.0351 40.1068 3.72944C36.1443 1.36268 31.5184 0 26.5697 0Z" fill="url(#paint2_linear_135_1517)"/>
</g>
</g>
</g>
</g>
<defs>
<linearGradient id="paint0_linear_135_1517" x1="10.2379" y1="-1.44489" x2="10.2379" y2="58.9816" gradientUnits="userSpaceOnUse">
<stop offset="0.109375" stop-color="#B4EA6F"/>
<stop offset="1" stop-color="#225B20"/>
</linearGradient>
<linearGradient id="paint1_linear_135_1517" x1="37.505" y1="1.63675" x2="37.505" y2="59.4024" gradientUnits="userSpaceOnUse">
<stop offset="0.109375" stop-color="#B4EA6F"/>
<stop offset="1" stop-color="#225B20"/>
</linearGradient>
<linearGradient id="paint2_linear_135_1517" x1="22.5194" y1="-2.65247" x2="22.5194" y2="54.4336" gradientUnits="userSpaceOnUse">
<stop offset="0.109375" stop-color="#B4EA6F"/>
<stop offset="1" stop-color="#225B20"/>
</linearGradient>
</defs>
</svg>
